<svg
  xmlns="http://www.w3.org/2000/svg"
  viewBox="0 0 32 32"
  fill="none"
  role="img"
  aria-label="码界空间"
>
  <!-- AIGC START -->
  <defs>
    <linearGradient id="mj-brand" x1="0" y1="16" x2="32" y2="16" gradientUnits="userSpaceOnUse">
      <stop stop-color="#3b82f6" />
      <stop offset="0.5" stop-color="#6366f1" />
      <stop offset="1" stop-color="#9333ea" />
    </linearGradient>
  </defs>
  <rect width="32" height="32" rx="8" fill="url(#mj-brand)" />
  <g transform="translate(4 4)" fill="none" stroke-linecap="round" stroke-linejoin="round">
    <path
      fill="#fff"
      stroke="none"
      d="M11.017 2.814a1 1 0 0 1 1.966 0l1.051 5.558a2 2 0 0 0 1.594 1.594l5.558 1.051a1 1 0 0 1 0 1.966l-5.558 1.051a2 2 0 0 0-1.594 1.594l-1.051 5.558a1 1 0 0 1-1.966 0l-1.051-5.558a2 2 0 0 0-1.594-1.594l-5.558-1.051a1 1 0 0 1 0-1.966l5.558-1.051a2 2 0 0 0 1.594-1.594z"
    />
    <path stroke="#fff" stroke-width="2" d="M20 2v4M22 4h-4" />
    <circle cx="4" cy="20" r="2" fill="#fff" stroke="none" />
  </g>
  <!-- AIGC END -->
</svg>
